<svg xmlns="http://www.w3.org/2000/svg" xmlns:xlink="http://www.w3.org/1999/xlink" viewBox="0 0 90.95 121.04"><defs><style>.cls-1{fill:url(#未命名的渐变_7);}</style><linearGradient id="未命名的渐变_7" x1="30.01" y1="76.39" x2="129.32" y2="-25.54" gradientUnits="userSpaceOnUse"><stop offset="0" stop-color="#d8598c"/><stop offset="0.04" stop-color="#da618d"/><stop offset="0.22" stop-color="#e18392"/><stop offset="0.41" stop-color="#e79e95"/><stop offset="0.6" stop-color="#ecb198"/><stop offset="0.79" stop-color="#eebc99"/><stop offset="1" stop-color="#efc09a"/></linearGradient></defs><title>资源 3</title><g id="图层_2" data-name="图层 2"><g id="图层_2-2" data-name="图层 2"><path class="cls-1" d="M49.8,60.61v-.18a6.27,6.27,0,0,1,4.78-6.11c18.35-4.4,32.77-21.85,36.26-43.94A9,9,0,0,0,81.85,0H9.1a9,9,0,0,0-9,10.38C3.6,32.47,18,49.92,36.36,54.32a6.27,6.27,0,0,1,4.78,6.11v.18a6.25,6.25,0,0,1-4.78,6.1C18,71.12,3.6,88.57.11,110.66A9.05,9.05,0,0,0,9.1,121H81.85a9.05,9.05,0,0,0,9-10.38C87.35,88.57,72.93,71.12,54.58,66.71A6.25,6.25,0,0,1,49.8,60.61Z"/></g></g></svg>